<?xml version="1.0" encoding="UTF-8"?>
<svg width="532px" height="187px" viewBox="0 0 532 187" version="1.1" xmlns="http://www.w3.org/2000/svg" xmlns:xlink="http://www.w3.org/1999/xlink">
    <!-- Generator: Sketch 54.1 (76490) - https://sketchapp.com -->
    <title>header-outline</title>
    <desc>Created with Sketch.</desc>
    <g id="Page-1" stroke="none" stroke-width="1" fill="none" fill-rule="evenodd">
        <g id="Homepage" transform="translate(-453.000000, -93.000000)" fill-rule="nonzero">
            <g id="header-outline" transform="translate(454.000000, 93.000000)">
                <polygon id="Line" fill="#CDAF4A" points="-1 18 119 18 119 16 -1 16"></polygon>
                <polygon id="Line" fill="#CDAF4A" points="411 18 531 18 531 16 411 16"></polygon>
                <path d="M37.1523438,96.21875 L37.1523438,107 L2.42578125,107 L2.42578125,97.9765625 C12.712291,81.1535617 18.8255111,70.7435096 20.765625,66.7460938 C22.7057389,62.7486779 23.6757812,59.6302195 23.6757812,57.390625 C23.6757812,55.6718664 23.3828154,54.3893271 22.796875,53.5429688 C22.2109346,52.6966104 21.3190164,52.2734375 20.1210938,52.2734375 C18.9231711,52.2734375 18.0312529,52.7421828 17.4453125,53.6796875 C16.8593721,54.6171922 16.5664062,56.4791527 16.5664062,59.265625 L16.5664062,65.28125 L2.42578125,65.28125 L2.42578125,62.9765625 C2.42578125,59.4348781 2.60807109,56.6419373 2.97265625,54.5976562 C3.33724141,52.5533752 4.23566992,50.5416766 5.66796875,48.5625 C7.10026758,46.5833234 8.96222812,45.0859426 11.2539062,44.0703125 C13.5455844,43.0546824 16.2929527,42.546875 19.4960938,42.546875 C25.7721668,42.546875 30.5182131,44.102849 33.734375,47.2148438 C36.9505369,50.3268385 38.5585938,54.2656012 38.5585938,59.03125 C38.5585938,62.6510598 37.6536549,66.4791465 35.84375,70.515625 C34.0338451,74.5521035 28.7018672,83.1197262 19.8476562,96.21875 L37.1523438,96.21875 Z M80.5117188,65.1640625 L80.5117188,86.2578125 C80.5117188,91.0495031 80.2513047,94.5390516 79.7304688,96.7265625 C79.2096328,98.9140734 78.1289145,100.958324 76.4882812,102.859375 C74.847648,104.760426 72.8685012,106.1276 70.5507812,106.960938 C68.2330613,107.794275 65.6419414,108.210938 62.7773438,108.210938 C59.0012832,108.210938 55.8632937,107.774744 53.3632812,106.902344 C50.8632688,106.029944 48.8711012,104.66928 47.3867188,102.820312 C45.9023363,100.971345 44.8476594,99.0247498 44.2226562,96.9804688 C43.5976531,94.9361877 43.2851562,91.6875223 43.2851562,87.234375 L43.2851562,65.1640625 C43.2851562,59.3567418 43.7864533,55.007827 44.7890625,52.1171875 C45.7916717,49.226548 47.7838393,46.9088629 50.765625,45.1640625 C53.7474107,43.4192621 57.3606559,42.546875 61.6054688,42.546875 C65.0690277,42.546875 68.1679551,43.1523377 70.9023438,44.3632812 C73.6367324,45.5742248 75.6809828,47.0520746 77.0351562,48.796875 C78.3893297,50.5416754 79.3072893,52.5078016 79.7890625,54.6953125 C80.2708357,56.8828234 80.5117188,60.3723719 80.5117188,65.1640625 Z M64.7304688,59.8515625 C64.7304688,56.4921707 64.56771,54.3893271 64.2421875,53.5429688 C63.916665,52.6966104 63.1549539,52.2734375 61.9570312,52.2734375 C60.7851504,52.2734375 60.0104186,52.7226518 59.6328125,53.6210938 C59.2552064,54.5195357 59.0664062,56.5963379 59.0664062,59.8515625 L59.0664062,90.7109375 C59.0664062,94.3828309 59.2421857,96.5963504 59.59375,97.3515625 C59.9453143,98.1067746 60.7070254,98.484375 61.8789062,98.484375 C63.0507871,98.484375 63.8190086,98.0416711 64.1835938,97.15625 C64.5481789,96.2708289 64.7304688,94.2786613 64.7304688,91.1796875 L64.7304688,59.8515625 Z M135.785156,43.7578125 L123.792969,84.109375 L123.792969,107 L108.558594,107 L108.558594,84.109375 L96.9960938,43.7578125 L112.113281,43.7578125 C114.483085,56.0755824 115.811196,64.3697703 116.097656,68.640625 C117.009119,61.8957996 118.532541,53.6016117 120.667969,43.7578125 L135.785156,43.7578125 Z M138.597656,43.7578125 L166.019531,43.7578125 L166.019531,56.4140625 L155.042969,56.4140625 L155.042969,68.40625 L165.316406,68.40625 L165.316406,80.4375 L155.042969,80.4375 L155.042969,94.34375 L167.113281,94.34375 L167.113281,107 L138.597656,107 L138.597656,43.7578125 Z M200.238281,43.7578125 L209.652344,107 L192.816406,107 L191.996094,95.6328125 L186.097656,95.6328125 L185.121094,107 L168.089844,107 L176.449219,43.7578125 L200.238281,43.7578125 Z M191.527344,84.421875 C190.694006,77.2603809 189.860681,68.4193234 189.027344,57.8984375 C187.360669,69.9818312 186.319012,78.8228887 185.902344,84.421875 L191.527344,84.421875 Z M212.464844,43.7578125 L224.105469,43.7578125 C231.865924,43.7578125 237.119778,44.0572887 239.867188,44.65625 C242.614597,45.2552113 244.854158,46.7851439 246.585938,49.2460938 C248.317717,51.7070436 249.183594,55.6327855 249.183594,61.0234375 C249.183594,65.9453371 248.571621,69.2525957 247.347656,70.9453125 C246.123692,72.6380293 243.714862,73.6536441 240.121094,73.9921875 C243.376318,74.7994832 245.563796,75.8802016 246.683594,77.234375 C247.803391,78.5885484 248.499999,79.8320256 248.773438,80.9648438 C249.046876,82.0976619 249.183594,85.2161203 249.183594,90.3203125 L249.183594,107 L233.910156,107 L233.910156,85.984375 C233.910156,82.5989414 233.643232,80.5026082 233.109375,79.6953125 C232.575518,78.8880168 231.175793,78.484375 228.910156,78.484375 L228.910156,107 L212.464844,107 L212.464844,43.7578125 Z M228.910156,54.578125 L228.910156,68.640625 C230.759124,68.640625 232.054684,68.3867213 232.796875,67.8789062 C233.539066,67.3710912 233.910156,65.7239723 233.910156,62.9375 L233.910156,59.4609375 C233.910156,57.4557191 233.552087,56.1406281 232.835938,55.515625 C232.119788,54.8906219 230.811207,54.578125 228.910156,54.578125 Z M290.394531,62.8984375 L275.121094,62.8984375 L275.121094,58.2109375 C275.121094,56.0234266 274.925783,54.6302113 274.535156,54.03125 C274.144529,53.4322887 273.493494,53.1328125 272.582031,53.1328125 C271.592443,53.1328125 270.843753,53.5364543 270.335938,54.34375 C269.828122,55.1510457 269.574219,56.3749918 269.574219,58.015625 C269.574219,60.1250105 269.860674,61.7135363 270.433594,62.78125 C270.980471,63.8489637 272.529935,65.1380133 275.082031,66.6484375 C282.399776,70.9974176 287.009105,74.5650902 288.910156,77.3515625 C290.811207,80.1380348 291.761719,84.6301773 291.761719,90.828125 C291.761719,95.3333559 291.23438,98.6536352 290.179688,100.789062 C289.124995,102.92449 287.087255,104.714837 284.066406,106.160156 C281.045558,107.605476 277.529968,108.328125 273.519531,108.328125 C269.118468,108.328125 265.361995,107.4948 262.25,105.828125 C259.138005,104.16145 257.100265,102.039075 256.136719,99.4609375 C255.173172,96.8827996 254.691406,93.223982 254.691406,88.484375 L254.691406,84.34375 L269.964844,84.34375 L269.964844,92.0390625 C269.964844,94.408866 270.179685,95.9322883 270.609375,96.609375 C271.039065,97.2864617 271.800776,97.625 272.894531,97.625 C273.988287,97.625 274.802081,97.1953168 275.335938,96.3359375 C275.869794,95.4765582 276.136719,94.2005293 276.136719,92.5078125 C276.136719,88.7838355 275.628911,86.3489641 274.613281,85.203125 C273.571609,84.0572859 271.006531,82.1432426 266.917969,79.4609375 C262.829407,76.7525906 260.1211,74.7864645 258.792969,73.5625 C257.464837,72.3385355 256.364588,70.6458441 255.492188,68.484375 C254.619787,66.3229059 254.183594,63.5625168 254.183594,60.203125 C254.183594,55.3593508 254.802077,51.8177195 256.039062,49.578125 C257.276048,47.3385305 259.274726,45.5872459 262.035156,44.3242188 C264.795587,43.0611916 268.128887,42.4296875 272.035156,42.4296875 C276.306011,42.4296875 279.945297,43.1197848 282.953125,44.5 C285.960953,45.8802152 287.95312,47.6184791 288.929688,49.7148438 C289.906255,51.8112084 290.394531,55.3723707 290.394531,60.3984375 L290.394531,62.8984375 Z M348.597656,80.7890625 C348.597656,87.1432609 348.447918,91.6419139 348.148438,94.2851562 C347.848957,96.9283986 346.911466,99.3437391 345.335938,101.53125 C343.760409,103.718761 341.631524,105.398432 338.949219,106.570312 C336.266914,107.742193 333.141945,108.328125 329.574219,108.328125 C326.188785,108.328125 323.148451,107.774745 320.453125,106.667969 C317.757799,105.561192 315.589852,103.901053 313.949219,101.6875 C312.308586,99.4739473 311.332033,97.0651172 311.019531,94.4609375 C310.70703,91.8567578 310.550781,87.2995117 310.550781,80.7890625 L310.550781,69.96875 C310.550781,63.6145516 310.700519,59.1158986 311,56.4726562 C311.299481,53.8294139 312.236971,51.4140734 313.8125,49.2265625 C315.388029,47.0390516 317.516914,45.3593809 320.199219,44.1875 C322.881524,43.0156191 326.006493,42.4296875 329.574219,42.4296875 C332.959652,42.4296875 335.999987,42.9830674 338.695312,44.0898438 C341.390638,45.1966201 343.558586,46.8567598 345.199219,49.0703125 C346.839852,51.2838652 347.816405,53.6926953 348.128906,56.296875 C348.441408,58.9010547 348.597656,63.4583008 348.597656,69.96875 L348.597656,80.7890625 Z M332.152344,60.0078125 C332.152344,57.0650895 331.989585,55.1835979 331.664062,54.3632812 C331.33854,53.5429646 330.667974,53.1328125 329.652344,53.1328125 C328.792964,53.1328125 328.135419,53.4648404 327.679688,54.1289062 C327.223956,54.7929721 326.996094,56.7525879 326.996094,60.0078125 L326.996094,89.5390625 C326.996094,93.2109559 327.145832,95.4765582 327.445312,96.3359375 C327.744793,97.1953168 328.441401,97.625 329.535156,97.625 C330.654954,97.625 331.371092,97.1302133 331.683594,96.140625 C331.996095,95.1510367 332.152344,92.7942895 332.152344,89.0703125 L332.152344,60.0078125 Z M354.730469,43.7578125 L382.582031,43.7578125 L382.582031,56.4140625 L371.175781,56.4140625 L371.175781,68.40625 L381.332031,68.40625 L381.332031,80.4375 L371.175781,80.4375 L371.175781,107 L354.730469,107 L354.730469,43.7578125 Z M438.402344,67.0390625 L421.957031,67.0390625 L421.957031,61.296875 C421.957031,57.6770652 421.800783,55.4114629 421.488281,54.5 C421.17578,53.5885371 420.4336,53.1328125 419.261719,53.1328125 C418.246089,53.1328125 417.555991,53.5234336 417.191406,54.3046875 C416.826821,55.0859414 416.644531,57.0911297 416.644531,60.3203125 L416.644531,90.671875 C416.644531,93.5104309 416.826821,95.3789018 417.191406,96.2773438 C417.555991,97.1757857 418.285151,97.625 419.378906,97.625 C420.576829,97.625 421.390623,97.1171926 421.820312,96.1015625 C422.250002,95.0859324 422.464844,93.1067855 422.464844,90.1640625 L422.464844,82.6640625 L419.144531,82.6640625 L419.144531,73.0546875 L438.402344,73.0546875 L438.402344,107 L428.050781,107 L426.527344,102.46875 C425.407546,104.421885 423.9948,105.886714 422.289062,106.863281 C420.583325,107.839849 418.571626,108.328125 416.253906,108.328125 C413.493476,108.328125 410.908866,107.657559 408.5,106.316406 C406.091134,104.975254 404.261725,103.315114 403.011719,101.335938 C401.761712,99.3567609 400.98047,97.2799588 400.667969,95.1054688 C400.355467,92.9309787 400.199219,89.6692926 400.199219,85.3203125 L400.199219,66.53125 C400.199219,60.4895531 400.524736,56.1015762 401.175781,53.3671875 C401.826826,50.6327988 403.695297,48.1263135 406.78125,45.8476562 C409.867203,43.568999 413.858048,42.4296875 418.753906,42.4296875 C423.571639,42.4296875 427.568995,43.4192609 430.746094,45.3984375 C433.923193,47.3776141 435.993485,49.727851 436.957031,52.4492188 C437.920578,55.1705865 438.402344,59.1223699 438.402344,64.3046875 L438.402344,67.0390625 Z M461.214844,43.7578125 L461.214844,107 L444.769531,107 L444.769531,43.7578125 L461.214844,43.7578125 Z M505.550781,67.0390625 L489.105469,67.0390625 L489.105469,61.296875 C489.105469,57.6770652 488.94922,55.4114629 488.636719,54.5 C488.324217,53.5885371 487.582037,53.1328125 486.410156,53.1328125 C485.394526,53.1328125 484.704429,53.5234336 484.339844,54.3046875 C483.975259,55.0859414 483.792969,57.0911297 483.792969,60.3203125 L483.792969,90.671875 C483.792969,93.5104309 483.975259,95.3789018 484.339844,96.2773438 C484.704429,97.1757857 485.433588,97.625 486.527344,97.625 C487.725266,97.625 488.53906,97.1171926 488.96875,96.1015625 C489.39844,95.0859324 489.613281,93.1067855 489.613281,90.1640625 L489.613281,82.6640625 L486.292969,82.6640625 L486.292969,73.0546875 L505.550781,73.0546875 L505.550781,107 L495.199219,107 L493.675781,102.46875 C492.555984,104.421885 491.143238,105.886714 489.4375,106.863281 C487.731762,107.839849 485.720064,108.328125 483.402344,108.328125 C480.641913,108.328125 478.057304,107.657559 475.648438,106.316406 C473.239571,104.975254 471.410163,103.315114 470.160156,101.335938 C468.91015,99.3567609 468.128908,97.2799588 467.816406,95.1054688 C467.503905,92.9309787 467.347656,89.6692926 467.347656,85.3203125 L467.347656,66.53125 C467.347656,60.4895531 467.673174,56.1015762 468.324219,53.3671875 C468.975264,50.6327988 470.843735,48.1263135 473.929688,45.8476562 C477.01564,43.568999 481.006486,42.4296875 485.902344,42.4296875 C490.720076,42.4296875 494.717432,43.4192609 497.894531,45.3984375 C501.07163,47.3776141 503.141922,49.727851 504.105469,52.4492188 C505.069015,55.1705865 505.550781,59.1223699 505.550781,64.3046875 L505.550781,67.0390625 Z M528.363281,43.7578125 L528.363281,107 L511.917969,107 L511.917969,43.7578125 L528.363281,43.7578125 Z M82.0742188,121.757812 L94.3789062,121.757812 C102.321654,121.757812 107.692694,122.122392 110.492188,122.851562 C113.291681,123.580733 115.420566,124.778638 116.878906,126.445312 C118.337247,128.111987 119.248696,129.967438 119.613281,132.011719 C119.977866,134.056 120.160156,138.072887 120.160156,144.0625 L120.160156,166.210938 C120.160156,171.888049 119.893232,175.683584 119.359375,177.597656 C118.825518,179.511728 117.894538,181.009109 116.566406,182.089844 C115.238275,183.170578 113.597666,183.925779 111.644531,184.355469 C109.691396,184.785158 106.748718,185 102.816406,185 L82.0742188,185 L82.0742188,121.757812 Z M98.5195312,132.578125 L98.5195312,174.179688 C100.889335,174.179688 102.347654,173.704432 102.894531,172.753906 C103.441409,171.803381 103.714844,169.218771 103.714844,165 L103.714844,140.429688 C103.714844,137.56509 103.623699,135.729171 103.441406,134.921875 C103.259114,134.114579 102.842451,133.522137 102.191406,133.144531 C101.540361,132.766925 100.316415,132.578125 98.5195312,132.578125 Z M135.003906,121.757812 L135.003906,127.421875 C135.003906,130.364598 134.652347,132.792959 133.949219,134.707031 C133.24609,136.621103 132.028654,138.235671 130.296875,139.550781 C128.565096,140.865892 126.60548,141.75781 124.417969,142.226562 L124.417969,137.65625 C125.980477,136.796871 126.865884,135.625007 127.074219,134.140625 L124.417969,134.140625 L124.417969,121.757812 L135.003906,121.757812 Z M168.128906,121.757812 L177.542969,185 L160.707031,185 L159.886719,173.632812 L153.988281,173.632812 L153.011719,185 L135.980469,185 L144.339844,121.757812 L168.128906,121.757812 Z M159.417969,162.421875 C158.584631,155.260381 157.751306,146.419323 156.917969,135.898438 C155.251294,147.981831 154.209637,156.822889 153.792969,162.421875 L159.417969,162.421875 Z M218.089844,145.039062 L201.644531,145.039062 L201.644531,139.296875 C201.644531,135.677065 201.488283,133.411463 201.175781,132.5 C200.86328,131.588537 200.1211,131.132812 198.949219,131.132812 C197.933589,131.132812 197.243491,131.523434 196.878906,132.304688 C196.514321,133.085941 196.332031,135.09113 196.332031,138.320312 L196.332031,168.671875 C196.332031,171.510431 196.514321,173.378902 196.878906,174.277344 C197.243491,175.175786 197.972651,175.625 199.066406,175.625 C200.264329,175.625 201.078123,175.117193 201.507812,174.101562 C201.937502,173.085932 202.152344,171.106786 202.152344,168.164062 L202.152344,160.664062 L198.832031,160.664062 L198.832031,151.054688 L218.089844,151.054688 L218.089844,185 L207.738281,185 L206.214844,180.46875 C205.095046,182.421885 203.6823,183.886714 201.976562,184.863281 C200.270825,185.839849 198.259126,186.328125 195.941406,186.328125 C193.180976,186.328125 190.596366,185.657559 188.1875,184.316406 C185.778634,182.975254 183.949225,181.315114 182.699219,179.335938 C181.449213,177.356761 180.66797,175.279959 180.355469,173.105469 C180.042967,170.930979 179.886719,167.669293 179.886719,163.320312 L179.886719,144.53125 C179.886719,138.489553 180.212236,134.101576 180.863281,131.367188 C181.514326,128.632799 183.382797,126.126313 186.46875,123.847656 C189.554703,121.568999 193.545548,120.429688 198.441406,120.429688 C203.259139,120.429688 207.256495,121.419261 210.433594,123.398438 C213.610693,125.377614 215.680985,127.727851 216.644531,130.449219 C217.608078,133.170587 218.089844,137.12237 218.089844,142.304688 L218.089844,145.039062 Z M262.035156,158.789062 C262.035156,165.143261 261.885418,169.641914 261.585938,172.285156 C261.286457,174.928399 260.348966,177.343739 258.773438,179.53125 C257.197909,181.718761 255.069024,183.398432 252.386719,184.570312 C249.704414,185.742193 246.579445,186.328125 243.011719,186.328125 C239.626285,186.328125 236.585951,185.774745 233.890625,184.667969 C231.195299,183.561192 229.027352,181.901053 227.386719,179.6875 C225.746086,177.473947 224.769533,175.065117 224.457031,172.460938 C224.14453,169.856758 223.988281,165.299512 223.988281,158.789062 L223.988281,147.96875 C223.988281,141.614552 224.138019,137.115899 224.4375,134.472656 C224.736981,131.829414 225.674471,129.414073 227.25,127.226562 C228.825529,125.039052 230.954414,123.359381 233.636719,122.1875 C236.319024,121.015619 239.443993,120.429688 243.011719,120.429688 C246.397152,120.429688 249.437487,120.983067 252.132812,122.089844 C254.828138,123.19662 256.996086,124.85676 258.636719,127.070312 C260.277352,129.283865 261.253905,131.692695 261.566406,134.296875 C261.878908,136.901055 262.035156,141.458301 262.035156,147.96875 L262.035156,158.789062 Z M245.589844,138.007812 C245.589844,135.065089 245.427085,133.183598 245.101562,132.363281 C244.77604,131.542965 244.105474,131.132812 243.089844,131.132812 C242.230464,131.132812 241.572919,131.46484 241.117188,132.128906 C240.661456,132.792972 240.433594,134.752588 240.433594,138.007812 L240.433594,167.539062 C240.433594,171.210956 240.583332,173.476558 240.882812,174.335938 C241.182293,175.195317 241.878901,175.625 242.972656,175.625 C244.092454,175.625 244.808592,175.130213 245.121094,174.140625 C245.433595,173.151037 245.589844,170.794289 245.589844,167.070312 L245.589844,138.007812 Z M303.011719,140.898438 L287.738281,140.898438 L287.738281,136.210938 C287.738281,134.023427 287.542971,132.630211 287.152344,132.03125 C286.761717,131.432289 286.110682,131.132812 285.199219,131.132812 C284.20963,131.132812 283.46094,131.536454 282.953125,132.34375 C282.44531,133.151046 282.191406,134.374992 282.191406,136.015625 C282.191406,138.125011 282.477862,139.713536 283.050781,140.78125 C283.597659,141.848964 285.147123,143.138013 287.699219,144.648438 C295.016964,148.997418 299.626293,152.56509 301.527344,155.351562 C303.428395,158.138035 304.378906,162.630177 304.378906,168.828125 C304.378906,173.333356 303.851568,176.653635 302.796875,178.789062 C301.742182,180.92449 299.704442,182.714837 296.683594,184.160156 C293.662745,185.605476 290.147155,186.328125 286.136719,186.328125 C281.735655,186.328125 277.979182,185.4948 274.867188,183.828125 C271.755193,182.16145 269.717453,180.039075 268.753906,177.460938 C267.79036,174.8828 267.308594,171.223982 267.308594,166.484375 L267.308594,162.34375 L282.582031,162.34375 L282.582031,170.039062 C282.582031,172.408866 282.796873,173.932288 283.226562,174.609375 C283.656252,175.286462 284.417963,175.625 285.511719,175.625 C286.605474,175.625 287.419268,175.195317 287.953125,174.335938 C288.486982,173.476558 288.753906,172.200529 288.753906,170.507812 C288.753906,166.783836 288.246099,164.348964 287.230469,163.203125 C286.188797,162.057286 283.623718,160.143243 279.535156,157.460938 C275.446594,154.752591 272.738288,152.786464 271.410156,151.5625 C270.082025,150.338536 268.981775,148.645844 268.109375,146.484375 C267.236975,144.322906 266.800781,141.562517 266.800781,138.203125 C266.800781,133.359351 267.419265,129.81772 268.65625,127.578125 C269.893235,125.33853 271.891913,123.587246 274.652344,122.324219 C277.412774,121.061192 280.746074,120.429688 284.652344,120.429688 C288.923198,120.429688 292.562485,121.119785 295.570312,122.5 C298.57814,123.880215 300.570308,125.618479 301.546875,127.714844 C302.523442,129.811208 303.011719,133.372371 303.011719,138.398438 L303.011719,140.898438 Z M342.660156,121.757812 L342.660156,134.414062 L332.894531,134.414062 L332.894531,185 L316.449219,185 L316.449219,134.414062 L306.722656,134.414062 L306.722656,121.757812 L342.660156,121.757812 Z M362.855469,121.757812 L362.855469,185 L346.410156,185 L346.410156,121.757812 L362.855469,121.757812 Z M406.175781,121.757812 L406.175781,185 L391.761719,185 L383.207031,156.25 L383.207031,185 L369.457031,185 L369.457031,121.757812 L383.207031,121.757812 L392.425781,150.234375 L392.425781,121.757812 L406.175781,121.757812 Z M450.355469,158.789062 C450.355469,165.143261 450.205731,169.641914 449.90625,172.285156 C449.606769,174.928399 448.669279,177.343739 447.09375,179.53125 C445.518221,181.718761 443.389336,183.398432 440.707031,184.570312 C438.024726,185.742193 434.899757,186.328125 431.332031,186.328125 C427.946598,186.328125 424.906263,185.774745 422.210938,184.667969 C419.515612,183.561192 417.347664,181.901053 415.707031,179.6875 C414.066398,177.473947 413.089845,175.065117 412.777344,172.460938 C412.464842,169.856758 412.308594,165.299512 412.308594,158.789062 L412.308594,147.96875 C412.308594,141.614552 412.458332,137.115899 412.757812,134.472656 C413.057293,131.829414 413.994784,129.414073 415.570312,127.226562 C417.145841,125.039052 419.274726,123.359381 421.957031,122.1875 C424.639336,121.015619 427.764305,120.429688 431.332031,120.429688 C434.717465,120.429688 437.757799,120.983067 440.453125,122.089844 C443.148451,123.19662 445.316398,124.85676 446.957031,127.070312 C448.597664,129.283865 449.574217,131.692695 449.886719,134.296875 C450.19922,136.901055 450.355469,141.458301 450.355469,147.96875 L450.355469,158.789062 Z M433.910156,138.007812 C433.910156,135.065089 433.747397,133.183598 433.421875,132.363281 C433.096353,131.542965 432.425786,131.132812 431.410156,131.132812 C430.550777,131.132812 429.893231,131.46484 429.4375,132.128906 C428.981769,132.792972 428.753906,134.752588 428.753906,138.007812 L428.753906,167.539062 C428.753906,171.210956 428.903644,173.476558 429.203125,174.335938 C429.502606,175.195317 430.199213,175.625 431.292969,175.625 C432.412766,175.625 433.128905,175.130213 433.441406,174.140625 C433.753908,173.151037 433.910156,170.794289 433.910156,167.070312 L433.910156,138.007812 Z" id="20YEARSOFGIGID’AGOSTINO" fill="#FFFFFF"></path>
                <path d="M137.302734,1.54101562 L137.302734,24.3046875 L141.802734,24.3046875 L141.802734,30 L129.902344,30 L129.902344,1.54101562 L137.302734,1.54101562 Z M147.515625,1.54101562 L147.515625,4.08984375 C147.515625,5.41406912 147.357423,6.50683163 147.041016,7.36816406 C146.724608,8.22949649 146.176762,8.95605173 145.397461,9.54785156 C144.61816,10.1396514 143.736333,10.5410146 142.751953,10.7519531 L142.751953,8.6953125 C143.455082,8.30859182 143.853515,7.78125334 143.947266,7.11328125 L142.751953,7.11328125 L142.751953,1.54101562 L147.515625,1.54101562 Z M162.421875,1.54101562 L166.658203,30 L159.082031,30 L158.712891,24.8847656 L156.058594,24.8847656 L155.619141,30 L147.955078,30 L151.716797,1.54101562 L162.421875,1.54101562 Z M158.501953,19.8398438 C158.126951,16.6171714 157.751955,12.6386955 157.376953,7.90429688 C156.626949,13.3418241 156.158204,17.3202999 155.970703,19.8398438 L158.501953,19.8398438 Z M190.757812,1.54101562 L190.757812,30 L184.289062,30 L184.289062,10.7871094 L181.705078,30 L177.117188,30 L174.392578,11.2265625 L174.392578,30 L167.923828,30 L167.923828,1.54101562 L177.503906,1.54101562 C177.785158,3.25196168 178.083983,5.26756652 178.400391,7.58789062 L179.419922,14.8300781 L181.107422,1.54101562 L190.757812,1.54101562 Z M210.638672,18.2050781 C210.638672,21.0644674 210.57129,23.0888612 210.436523,24.2783203 C210.301757,25.4677794 209.879886,26.5546826 209.170898,27.5390625 C208.461911,28.5234424 207.503912,29.2792942 206.296875,29.8066406 C205.089838,30.333987 203.683602,30.5976562 202.078125,30.5976562 C200.55468,30.5976562 199.18653,30.3486353 197.973633,29.8505859 C196.760736,29.3525366 195.78516,28.6054737 195.046875,27.609375 C194.30859,26.6132763 193.869141,25.5293027 193.728516,24.3574219 C193.58789,23.185541 193.517578,21.1347803 193.517578,18.2050781 L193.517578,13.3359375 C193.517578,10.4765482 193.58496,8.45215438 193.719727,7.26269531 C193.854493,6.07323624 194.276364,4.98633305 194.985352,4.00195312 C195.694339,3.0175732 196.652338,2.26172139 197.859375,1.734375 C199.066412,1.20702861 200.472648,0.943359375 202.078125,0.943359375 C203.60157,0.943359375 204.96972,1.19238032 206.182617,1.69042969 C207.395514,2.18847905 208.37109,2.93554189 209.109375,3.93164062 C209.84766,4.92773936 210.287109,6.01171289 210.427734,7.18359375 C210.56836,8.35547461 210.638672,10.4062354 210.638672,13.3359375 L210.638672,18.2050781 Z M203.238281,8.85351562 C203.238281,7.52929025 203.16504,6.68261903 203.018555,6.31347656 C202.87207,5.94433409 202.570315,5.75976562 202.113281,5.75976562 C201.726561,5.75976562 201.430665,5.90917819 201.225586,6.20800781 C201.020507,6.50683743 200.917969,7.38866455 200.917969,8.85351562 L200.917969,22.1425781 C200.917969,23.7949301 200.985351,24.8144512 201.120117,25.2011719 C201.254883,25.5878926 201.568357,25.78125 202.060547,25.78125 C202.564456,25.78125 202.886718,25.558596 203.027344,25.1132812 C203.167969,24.6679665 203.238281,23.6074303 203.238281,21.9316406 L203.238281,8.85351562 Z M230.220703,1.54101562 L230.220703,20.5605469 C230.220703,22.7168077 230.150391,24.2314409 230.009766,25.1044922 C229.86914,25.9775434 229.453128,26.8740188 228.761719,27.7939453 C228.070309,28.7138718 227.159185,29.4111304 226.02832,29.8857422 C224.897455,30.3603539 223.564461,30.5976562 222.029297,30.5976562 C220.33007,30.5976562 218.830085,30.3164091 217.529297,29.7539062 C216.228509,29.1914034 215.255863,28.4589889 214.611328,27.5566406 C213.966794,26.6542924 213.585938,25.7021534 213.46875,24.7001953 C213.351562,23.6982372 213.292969,21.5918129 213.292969,18.3808594 L213.292969,1.54101562 L220.693359,1.54101562 L220.693359,22.8808594 C220.693359,24.1230531 220.760742,24.9169905 220.895508,25.2626953 C221.030274,25.6084002 221.302732,25.78125 221.712891,25.78125 C222.181643,25.78125 222.483398,25.5908222 222.618164,25.2099609 C222.75293,24.8290997 222.820312,23.9296946 222.820312,22.5117188 L222.820312,1.54101562 L230.220703,1.54101562 Z M233.085938,1.54101562 L238.324219,1.54101562 C241.816424,1.54101562 244.180658,1.6757799 245.416992,1.9453125 C246.653326,2.2148451 247.661129,2.90331478 248.44043,4.01074219 C249.21973,5.1181696 249.609375,6.8847535 249.609375,9.31054688 C249.609375,11.5254017 249.333987,13.0136681 248.783203,13.7753906 C248.232419,14.5371132 247.148446,14.9941399 245.53125,15.1464844 C246.996101,15.5097674 247.980466,15.9960907 248.484375,16.6054688 C248.988284,17.2148468 249.301757,17.7744115 249.424805,18.2841797 C249.547852,18.7939479 249.609375,20.1972541 249.609375,22.4941406 L249.609375,30 L242.736328,30 L242.736328,20.5429688 C242.736328,19.0195236 242.616212,18.0761737 242.375977,17.7128906 C242.135741,17.3496076 241.505864,17.1679688 240.486328,17.1679688 L240.486328,30 L233.085938,30 L233.085938,1.54101562 Z M240.486328,6.41015625 L240.486328,12.7382812 C241.318364,12.7382812 241.901366,12.6240246 242.235352,12.3955078 C242.569338,12.166991 242.736328,11.4257875 242.736328,10.171875 L242.736328,8.60742188 C242.736328,7.70507361 242.575197,7.11328266 242.25293,6.83203125 C241.930662,6.55077984 241.341801,6.41015625 240.486328,6.41015625 Z M273.726562,1.54101562 L273.726562,7.23632812 L269.332031,7.23632812 L269.332031,30 L261.931641,30 L261.931641,7.23632812 L257.554688,7.23632812 L257.554688,1.54101562 L273.726562,1.54101562 Z M292.324219,18.2050781 C292.324219,21.0644674 292.256837,23.0888612 292.12207,24.2783203 C291.987304,25.4677794 291.565433,26.5546826 290.856445,27.5390625 C290.147457,28.5234424 289.189459,29.2792942 287.982422,29.8066406 C286.775385,30.333987 285.369149,30.5976562 283.763672,30.5976562 C282.240227,30.5976562 280.872076,30.3486353 279.65918,29.8505859 C278.446283,29.3525366 277.470707,28.6054737 276.732422,27.609375 C275.994137,26.6132763 275.554688,25.5293027 275.414062,24.3574219 C275.273437,23.185541 275.203125,21.1347803 275.203125,18.2050781 L275.203125,13.3359375 C275.203125,10.4765482 275.270507,8.45215438 275.405273,7.26269531 C275.54004,6.07323624 275.961911,4.98633305 276.670898,4.00195312 C277.379886,3.0175732 278.337885,2.26172139 279.544922,1.734375 C280.751959,1.20702861 282.158195,0.943359375 283.763672,0.943359375 C285.287117,0.943359375 286.655267,1.19238032 287.868164,1.69042969 C289.081061,2.18847905 290.056637,2.93554189 290.794922,3.93164062 C291.533207,4.92773936 291.972656,6.01171289 292.113281,7.18359375 C292.253907,8.35547461 292.324219,10.4062354 292.324219,13.3359375 L292.324219,18.2050781 Z M284.923828,8.85351562 C284.923828,7.52929025 284.850587,6.68261903 284.704102,6.31347656 C284.557616,5.94433409 284.255862,5.75976562 283.798828,5.75976562 C283.412107,5.75976562 283.116212,5.90917819 282.911133,6.20800781 C282.706054,6.50683743 282.603516,7.38866455 282.603516,8.85351562 L282.603516,22.1425781 C282.603516,23.7949301 282.670898,24.8144512 282.805664,25.2011719 C282.94043,25.5878926 283.253904,25.78125 283.746094,25.78125 C284.250003,25.78125 284.572265,25.558596 284.712891,25.1132812 C284.853516,24.6679665 284.923828,23.6074303 284.923828,21.9316406 L284.923828,8.85351562 Z M311.90625,1.54101562 L311.90625,20.5605469 C311.90625,22.7168077 311.835938,24.2314409 311.695312,25.1044922 C311.554687,25.9775434 311.138675,26.8740188 310.447266,27.7939453 C309.755856,28.7138718 308.844732,29.4111304 307.713867,29.8857422 C306.583002,30.3603539 305.250008,30.5976562 303.714844,30.5976562 C302.015617,30.5976562 300.515632,30.3164091 299.214844,29.7539062 C297.914056,29.1914034 296.941409,28.4589889 296.296875,27.5566406 C295.652341,26.6542924 295.271485,25.7021534 295.154297,24.7001953 C295.037109,23.6982372 294.978516,21.5918129 294.978516,18.3808594 L294.978516,1.54101562 L302.378906,1.54101562 L302.378906,22.8808594 C302.378906,24.1230531 302.446288,24.9169905 302.581055,25.2626953 C302.715821,25.6084002 302.988279,25.78125 303.398438,25.78125 C303.86719,25.78125 304.168945,25.5908222 304.303711,25.2099609 C304.438477,24.8290997 304.505859,23.9296946 304.505859,22.5117188 L304.505859,1.54101562 L311.90625,1.54101562 Z M323.824219,1.54101562 L323.824219,20.5605469 C323.824219,23.4082174 323.794922,25.2392537 323.736328,26.0537109 C323.677734,26.8681681 323.411135,27.6035123 322.936523,28.2597656 C322.461912,28.9160189 321.817387,29.3701159 321.00293,29.6220703 C320.188472,29.8740247 318.960946,30 317.320312,30 L313.611328,30 L313.611328,25.0253906 C314.056643,25.0605471 314.378905,25.078125 314.578125,25.078125 C315.105471,25.078125 315.521483,24.94922 315.826172,24.6914062 C316.130861,24.4335925 316.30664,24.1171894 316.353516,23.7421875 C316.400391,23.3671856 316.423828,22.6406304 316.423828,21.5625 L316.423828,1.54101562 L323.824219,1.54101562 Z M343.599609,18.2050781 C343.599609,21.0644674 343.532227,23.0888612 343.397461,24.2783203 C343.262695,25.4677794 342.840824,26.5546826 342.131836,27.5390625 C341.422848,28.5234424 340.46485,29.2792942 339.257812,29.8066406 C338.050775,30.333987 336.644539,30.5976562 335.039062,30.5976562 C333.515617,30.5976562 332.147467,30.3486353 330.93457,29.8505859 C329.721674,29.3525366 328.746097,28.6054737 328.007812,27.609375 C327.269528,26.6132763 326.830079,25.5293027 326.689453,24.3574219 C326.548827,23.185541 326.478516,21.1347803 326.478516,18.2050781 L326.478516,13.3359375 C326.478516,10.4765482 326.545898,8.45215438 326.680664,7.26269531 C326.81543,6.07323624 327.237301,4.98633305 327.946289,4.00195312 C328.655277,3.0175732 329.613275,2.26172139 330.820312,1.734375 C332.02735,1.20702861 333.433586,0.943359375 335.039062,0.943359375 C336.562508,0.943359375 337.930658,1.19238032 339.143555,1.69042969 C340.356451,2.18847905 341.332028,2.93554189 342.070312,3.93164062 C342.808597,4.92773936 343.248046,6.01171289 343.388672,7.18359375 C343.529298,8.35547461 343.599609,10.4062354 343.599609,13.3359375 L343.599609,18.2050781 Z M336.199219,8.85351562 C336.199219,7.52929025 336.125977,6.68261903 335.979492,6.31347656 C335.833007,5.94433409 335.531252,5.75976562 335.074219,5.75976562 C334.687498,5.75976562 334.391603,5.90917819 334.186523,6.20800781 C333.981444,6.50683743 333.878906,7.38866455 333.878906,8.85351562 L333.878906,22.1425781 C333.878906,23.7949301 333.946288,24.8144512 334.081055,25.2011719 C334.215821,25.5878926 334.529294,25.78125 335.021484,25.78125 C335.525393,25.78125 335.847656,25.558596 335.988281,25.1132812 C336.128907,24.6679665 336.199219,23.6074303 336.199219,21.9316406 L336.199219,8.85351562 Z M363.181641,1.54101562 L363.181641,20.5605469 C363.181641,22.7168077 363.111329,24.2314409 362.970703,25.1044922 C362.830077,25.9775434 362.414066,26.8740188 361.722656,27.7939453 C361.031247,28.7138718 360.120123,29.4111304 358.989258,29.8857422 C357.858393,30.3603539 356.525398,30.5976562 354.990234,30.5976562 C353.291007,30.5976562 351.791022,30.3164091 350.490234,29.7539062 C349.189447,29.1914034 348.2168,28.4589889 347.572266,27.5566406 C346.927731,26.6542924 346.546876,25.7021534 346.429688,24.7001953 C346.312499,23.6982372 346.253906,21.5918129 346.253906,18.3808594 L346.253906,1.54101562 L353.654297,1.54101562 L353.654297,22.8808594 C353.654297,24.1230531 353.721679,24.9169905 353.856445,25.2626953 C353.991212,25.6084002 354.26367,25.78125 354.673828,25.78125 C355.14258,25.78125 355.444335,25.5908222 355.579102,25.2099609 C355.713868,24.8290997 355.78125,23.9296946 355.78125,22.5117188 L355.78125,1.54101562 L363.181641,1.54101562 Z M366.046875,1.54101562 L371.285156,1.54101562 C374.777361,1.54101562 377.141595,1.6757799 378.37793,1.9453125 C379.614264,2.2148451 380.622066,2.90331478 381.401367,4.01074219 C382.180668,5.1181696 382.570312,6.8847535 382.570312,9.31054688 C382.570312,11.5254017 382.294925,13.0136681 381.744141,13.7753906 C381.193357,14.5371132 380.109383,14.9941399 378.492188,15.1464844 C379.957039,15.5097674 380.941404,15.9960907 381.445312,16.6054688 C381.949221,17.2148468 382.262695,17.7744115 382.385742,18.2841797 C382.50879,18.7939479 382.570312,20.1972541 382.570312,22.4941406 L382.570312,30 L375.697266,30 L375.697266,20.5429688 C375.697266,19.0195236 375.57715,18.0761737 375.336914,17.7128906 C375.096678,17.3496076 374.466802,17.1679688 373.447266,17.1679688 L373.447266,30 L366.046875,30 L366.046875,1.54101562 Z M373.447266,6.41015625 L373.447266,12.7382812 C374.279301,12.7382812 374.862303,12.6240246 375.196289,12.3955078 C375.530275,12.166991 375.697266,11.4257875 375.697266,10.171875 L375.697266,8.60742188 C375.697266,7.70507361 375.536134,7.11328266 375.213867,6.83203125 C374.8916,6.55077984 374.302739,6.41015625 373.447266,6.41015625 Z M401.115234,10.1542969 L394.242188,10.1542969 L394.242188,8.04492188 C394.242188,7.06054195 394.154298,6.4335951 393.978516,6.1640625 C393.802733,5.8945299 393.509768,5.75976562 393.099609,5.75976562 C392.654295,5.75976562 392.317384,5.94140443 392.088867,6.3046875 C391.86035,6.66797057 391.746094,7.21874631 391.746094,7.95703125 C391.746094,8.90625475 391.874999,9.62109135 392.132812,10.1015625 C392.378907,10.5820337 393.076166,11.162106 394.224609,11.8417969 C397.517595,13.7988379 399.591793,15.4042906 400.447266,16.6582031 C401.302739,17.9121156 401.730469,19.9335798 401.730469,22.7226562 C401.730469,24.7500101 401.493166,26.2441358 401.018555,27.2050781 C400.543943,28.1660204 399.62696,28.9716764 398.267578,29.6220703 C396.908196,30.2724642 395.326181,30.5976562 393.521484,30.5976562 C391.541006,30.5976562 389.850593,30.22266 388.450195,29.4726562 C387.049798,28.7226525 386.132815,27.7675839 385.699219,26.6074219 C385.265623,25.4472598 385.048828,23.8007919 385.048828,21.6679688 L385.048828,19.8046875 L391.921875,19.8046875 L391.921875,23.2675781 C391.921875,24.3339897 392.018554,25.0195297 392.211914,25.3242188 C392.405274,25.6289078 392.748044,25.78125 393.240234,25.78125 C393.732424,25.78125 394.098632,25.5878926 394.338867,25.2011719 C394.579103,24.8144512 394.699219,24.2402382 394.699219,23.4785156 C394.699219,21.802726 394.470705,20.7070338 394.013672,20.1914062 C393.54492,19.6757787 392.390634,18.8144592 390.550781,17.6074219 C388.710928,16.3886658 387.49219,15.503909 386.894531,14.953125 C386.296872,14.402341 385.80176,13.6406299 385.40918,12.6679688 C385.0166,11.6953076 384.820312,10.4531326 384.820312,8.94140625 C384.820312,6.76170785 385.09863,5.16797379 385.655273,4.16015625 C386.211917,3.15233871 387.111322,2.36426065 388.353516,1.79589844 C389.595709,1.22753622 391.095694,0.943359375 392.853516,0.943359375 C394.7754,0.943359375 396.413079,1.25390314 397.766602,1.875 C399.120124,2.49609686 400.016599,3.2783156 400.456055,4.22167969 C400.89551,5.16504378 401.115234,6.76756682 401.115234,9.02929688 L401.115234,10.1542969 Z" id="L’AMOURTOUJOURS" fill="#CEB040"></path>
            </g>
        </g>
    </g>
</svg>